<?xml version="1.0" encoding="UTF-8" standalone="no"?>
<svg width="15px" height="17px" viewBox="0 0 15 17" version="1.1" xmlns="http://www.w3.org/2000/svg" xmlns:xlink="http://www.w3.org/1999/xlink">
    <!-- Generator: Sketch 39.1 (31720) - http://www.bohemiancoding.com/sketch -->
    <title>Slice 1</title>
    <desc>Created with Sketch.</desc>
    <defs></defs>
    <g id="Page-1" stroke="none" stroke-width="1" fill="none" fill-rule="evenodd">
        <g id="003-bar-chart" transform="translate(0.000000, 1.000000)">
            <g id="Capa_1" style="mix-blend-mode: darken;">
                <path d="M3.04854182,8.67505653 C2.92795101,8.62346979 2.78908244,8.65182066 2.69669505,8.74691618 L1.63410387,9.84277583 L0.571482438,8.74691618 C0.445595918,8.61682651 0.241211889,8.616577 0.114992495,8.74632359 C0.0541372561,8.80888889 0.0200026419,8.89387914 0.0201539478,8.98245614 L0.0201539478,15.636117 C0.0201539478,15.8198519 0.164681357,15.9688109 0.342949985,15.9688109 L2.9252275,15.9688109 C3.10349613,15.9688109 3.24802354,15.8198519 3.24802354,15.636117 L3.24802354,8.98245614 C3.24802354,8.84784405 3.16925368,8.72648733 3.04854182,8.67505653 L3.04854182,8.67505653 Z" id="Shape" fill="#64B5F6"></path>
                <path d="M5.73606773,6.08545809 C5.61002991,5.95558674 5.4057064,5.95558674 5.27963831,6.08545809 L3.98848442,7.41620273 C3.92775023,7.47861209 3.89361562,7.56335283 3.89358535,7.65174269 L3.89358535,15.6361481 C3.89358535,15.819883 4.03811276,15.9688421 4.21638139,15.9688421 L6.79865891,15.9688421 C6.97692754,15.9688421 7.12145495,15.819883 7.12145495,15.6361481 L7.12145495,7.65174269 C7.12160625,7.56344639 7.08771373,7.47870565 7.02719136,7.41620273 L5.73606773,6.08545809 L5.73606773,6.08545809 Z" id="Shape" fill="#42A5F5"></path>
                <path d="M9.60949914,4.75471345 C9.48346131,4.62484211 9.27913781,4.62484211 9.15306972,4.75471345 L7.86191583,6.08545809 C7.80118164,6.14786745 7.76704702,6.23260819 7.76701676,6.32099805 L7.76701676,15.6361481 C7.76701676,15.819883 7.91154417,15.9688421 8.0898128,15.9688421 L10.6720903,15.9688421 C10.8503589,15.9688421 10.9948864,15.819883 10.9948864,15.6361481 L10.9948864,6.32099805 C10.9950377,6.23270175 10.9611451,6.14796101 10.9006228,6.08545809 L9.60949914,4.75471345 L9.60949914,4.75471345 Z" id="Shape" fill="#2196F3"></path>
                <path d="M14.7740844,4.08935673 L14.1285226,3.424 C14.0678792,3.36165302 13.9856596,3.32669006 13.8999902,3.326846 L13.2543981,3.326846 C13.1687287,3.32669006 13.0865091,3.36162183 13.0258656,3.424 L11.7347118,4.75474464 C11.6742196,4.81724756 11.6402969,4.9019883 11.6404482,4.9902846 L11.6404482,15.6361481 C11.6404482,15.819883 11.7849756,15.9688421 11.9632442,15.9688421 L14.5455217,15.9688421 C14.7237904,15.9688421 14.8683178,15.819883 14.8683178,15.6361481 L14.8683178,4.32489669 C14.8684691,4.23660039 14.8345765,4.15185965 14.7740844,4.08935673 L14.7740844,4.08935673 Z" id="Shape" fill="#1976D2"></path>
                <path d="M14.545552,-2.53111407e-13 L12.6088363,-2.53111407e-13 C12.4305677,-0.000343079922 12.2857982,0.148366472 12.2854653,0.332101365 C12.285314,0.420678363 12.3194486,0.505668616 12.3803038,0.568233918 L13.1207647,1.33074464 L10.6721206,3.85447173 L9.60949914,2.75861209 C9.48346131,2.62874074 9.27913781,2.62874074 9.15306972,2.75861209 L6.79865891,5.18521637 L5.73603747,4.08935673 C5.60999965,3.95948538 5.40567614,3.95948538 5.27960805,4.08935673 L1.63410387,7.84667446 L0.571482438,6.75081481 C0.443265807,6.62315789 0.238912039,6.62683821 0.115053017,6.75898635 C-0.00574962474,6.88792203 -0.00574962474,7.09230409 0.115053017,7.22120858 L1.40620691,8.55195322 C1.53224473,8.68182456 1.73656824,8.68182456 1.86263633,8.55195322 L5.50753528,4.79529045 L6.57015672,5.89049513 C6.69619454,6.02036647 6.90051805,6.02036647 7.02658614,5.89049513 L9.38096669,3.464577 L10.4435881,4.55978168 C10.569626,4.68965302 10.7739495,4.68965302 10.9000175,4.55978168 L13.5771941,1.80116959 L14.3170195,2.56368031 C14.3775722,2.6262768 14.4597918,2.66145809 14.545552,2.66148928 C14.5878874,2.66158285 14.6297991,2.65297466 14.6688663,2.63619493 C14.7895782,2.58476413 14.8683178,2.4634386 14.868348,2.32879532 L14.868348,0.332693957 C14.8683178,0.148959064 14.7238206,-2.53111407e-13 14.545552,-2.53111407e-13 L14.545552,-2.53111407e-13 Z" id="Shape" fill="#455A64"></path>
            </g>
        </g>
    </g>
</svg>