<?xml version="1.0" encoding="UTF-8" standalone="no"?>
<svg width="15px" height="16px" viewBox="0 0 15 16" version="1.1" xmlns="http://www.w3.org/2000/svg" xmlns:xlink="http://www.w3.org/1999/xlink">
    <!-- Generator: Sketch 39.1 (31720) - http://www.bohemiancoding.com/sketch -->
    <title>002-thumbs-up</title>
    <desc>Created with Sketch.</desc>
    <defs></defs>
    <g id="Page-1" stroke="none" stroke-width="1" fill="none" fill-rule="evenodd">
        <g id="002-thumbs-up">
            <g id="Layer_1">
                <path d="M11.2429487,7.42908382 C11.1577244,6.92353996 10.8833013,6.32096686 10.0600321,6.32096686 C9.94262821,6.32096686 9.84233974,6.40336842 9.82269231,6.5159922 L9.66467949,7.42078752 C9.60224359,7.77824561 9.51657051,8.11873684 9.41012821,8.43281092 C9.11535256,9.3025809 8.74339744,9.74839766 8.08352564,10.0230487 C7.76647436,10.1549786 7.50903846,10.2678519 7.40608974,10.3133255 L6.17211538,10.3133255 C6.03910256,10.3133255 5.93134615,10.4181832 5.93134615,10.5476179 L5.93134615,14.7914854 C5.93134615,14.9209201 6.03913462,15.0257778 6.17211538,15.0257778 L7.37314103,15.0257778 L7.89054487,15.4333879 C8.32490385,15.7755945 8.87189103,15.964039 9.43080128,15.964039 L10.8976923,15.964039 C11.0307051,15.964039 11.1384615,15.8591501 11.1384615,15.7297466 C11.1384615,15.6421988 11.0890705,15.5660351 11.0160256,15.5258324 L11.0160256,10.8471267 L10.7165385,10.8471267 L11.2205769,8.37548538 C11.2866987,8.05155556 11.2941987,7.73317739 11.2429487,7.42908382 L11.2429487,7.42908382 Z" id="Shape" fill="#F7B081"></path>
                <path d="M6.17214744,9.8917115 L4.30144231,9.8917115 C4.16842949,9.8917115 4.06067308,9.99660039 4.06067308,10.1260039 L4.06067308,15.1355322 C4.06067308,15.2649669 4.16846154,15.3698246 4.30144231,15.3698246 L6.17214744,15.3698246 C6.30516026,15.3698246 6.41291667,15.2649669 6.41291667,15.1355322 L6.41291667,10.1260351 C6.41294872,9.99660039 6.30512821,9.8917115 6.17214744,9.8917115 L6.17214744,9.8917115 Z" id="Shape" fill="#EFE7E4"></path>
                <path d="M4.06067308,14.4362417 L4.06067308,15.1355634 C4.06067308,15.2649981 4.16846154,15.3698558 4.30144231,15.3698558 L6.17214744,15.3698558 C6.30516026,15.3698558 6.41291667,15.2649981 6.41291667,15.1355634 L6.41291667,14.4362417 L4.06067308,14.4362417 L4.06067308,14.4362417 Z" id="Shape" fill="#D8D1D0"></path>
                <path d="M10.3675321,15.2938168 C10.3675321,14.9210136 10.6780769,14.6188538 11.0611859,14.6188538 C10.6780769,14.6188538 10.3675321,14.3166628 10.3675321,13.9438285 C10.3675321,13.5710253 10.6780769,13.2688343 11.0611859,13.2688343 C10.6780769,13.2688343 10.3675321,12.9666121 10.3675321,12.5938402 C10.3675321,12.221037 10.6780769,11.918846 11.0611859,11.918846 C10.6780769,11.918846 10.3675321,11.6166238 10.3675321,11.243883 C10.3675321,10.8710799 10.6780769,10.5688577 11.0611859,10.5688577 L10.2742308,10.5688577 C9.89112179,10.5688577 9.58057692,10.8710487 9.58057692,11.243883 C9.58057692,11.6166862 9.89112179,11.918846 10.2742308,11.918846 C9.89112179,11.918846 9.58057692,12.2210682 9.58057692,12.5938402 C9.58057692,12.9666433 9.89112179,13.2688343 10.2742308,13.2688343 C9.89112179,13.2688343 9.58057692,13.5710253 9.58057692,13.9438285 C9.58057692,14.3166316 9.89112179,14.6188538 10.2742308,14.6188538 C9.89112179,14.6188538 9.58057692,14.9210448 9.58057692,15.2938168 C9.58057692,15.6666199 9.89112179,15.9688421 10.2742308,15.9688421 L11.0611859,15.9688421 C10.6780769,15.9688109 10.3675321,15.6666199 10.3675321,15.2938168 L10.3675321,15.2938168 Z" id="Shape" fill="#DD9A76"></path>
                <path d="M4.84371795,3.38089669 C4.79032051,3.22111501 4.65102564,3.1068694 4.48016026,3.08269786 L3.38532051,2.92787524 L2.89570513,1.96247953 C2.81926282,1.81180507 2.66451923,1.71820663 2.49182692,1.71820663 C2.31916667,1.71820663 2.16442308,1.81180507 2.08798077,1.96247953 L1.59842949,2.92787524 L0.503621795,3.08269786 C0.332724359,3.10683821 0.193429487,3.22108382 0.140032051,3.38089669 C0.0866346154,3.54067836 0.130320513,3.71284211 0.253974359,3.83023782 L1.04621795,4.58167641 L0.859230769,5.64272904 C0.830032051,5.80837427 0.898685897,5.9725848 1.03833333,6.07139181 C1.11730769,6.12722027 1.20964744,6.15553996 1.30266026,6.15553996 C1.37423077,6.15553996 1.44615385,6.13872904 1.51266026,6.10473294 L2.49189103,5.60377388 L3.47112179,6.10473294 C3.62397436,6.18292398 3.80567308,6.17013645 3.94535256,6.07139181 C4.0850641,5.97264717 4.15371795,5.80837427 4.12451923,5.64272904 L3.9375,4.58167641 L4.72974359,3.83017544 C4.85346154,3.71287329 4.89708333,3.54070955 4.84371795,3.38089669 L4.84371795,3.38089669 Z" id="Shape" fill="#F7CB4F"></path>
                <path d="M4.48019231,3.08269786 L4.45586538,3.07926706 L3.21794872,4.2682885 C3.15435897,4.32860819 3.12535256,4.41550097 3.14035256,4.50064717 L3.43201923,6.08464717 L3.47115385,6.10467057 C3.62400641,6.1828616 3.80570513,6.17007407 3.94538462,6.07132943 C4.08509615,5.9725848 4.15375,5.80831189 4.12455128,5.64266667 L3.93753205,4.58161404 L4.72977564,3.83011306 C4.85346154,3.71281092 4.89711538,3.54064717 4.84375,3.38080312 C4.79032051,3.22105263 4.65102564,3.10680702 4.48019231,3.08269786 L4.48019231,3.08269786 Z" id="Shape" fill="#FBAB00"></path>
                <path d="M9.9086859,1.66269006 C9.85528846,1.50290838 9.71599359,1.38866277 9.54512821,1.36449123 L8.45028846,1.20966862 L7.96073718,0.244272904 C7.88429487,0.0935984405 7.72955128,0 7.55689103,0 C7.38419872,0 7.22948718,0.0935984405 7.15304487,0.244272904 L6.66342949,1.20966862 L5.56862179,1.36449123 C5.39772436,1.38860039 5.25842949,1.50287719 5.20503205,1.66269006 C5.15163462,1.82250292 5.19532051,1.99463548 5.31897436,2.11203119 L6.11125,2.86350097 L5.92423077,3.92452242 C5.89503205,4.09016764 5.9636859,4.25437817 6.10333333,4.35318519 C6.24304487,4.45196101 6.42471154,4.46471735 6.57762821,4.3865575 L7.55685897,3.88559844 L8.53608974,4.3865575 C8.6025641,4.4205848 8.67448718,4.43736452 8.74608974,4.43736452 C8.83910256,4.43736452 8.93144231,4.40898246 9.01041667,4.35321637 C9.15009615,4.25444055 9.21875,4.09019883 9.18951923,3.9245848 L9.0025,2.86353216 L9.79480769,2.11203119 C9.91842949,1.99466667 9.96208333,1.82250292 9.9086859,1.66269006 L9.9086859,1.66269006 Z" id="Shape" fill="#F7CB4F"></path>
                <path d="M9.01041667,4.35312281 C9.15009615,4.25434698 9.21875,4.09010526 9.18951923,3.92449123 L9.0025,2.8634386 L9.79480769,2.11193762 C9.91842949,1.99460429 9.96211538,1.82244055 9.90871795,1.66262768 C9.85532051,1.502846 9.71602564,1.38860039 9.54516026,1.36442885 L9.53512821,1.36302534 L8.28288462,2.5499883 C8.21932692,2.6102768 8.19028846,2.69720078 8.20528846,2.78234698 L8.43198718,4.06842885 L8.48628205,4.36092008 L8.53608974,4.38637037 C8.6025641,4.42039766 8.67448718,4.43717739 8.74608974,4.43717739 C8.83910256,4.43727096 8.93147436,4.40892008 9.01041667,4.35312281 L9.01041667,4.35312281 Z" id="Shape" fill="#FBAB00"></path>
                <path d="M14.964359,3.38089669 C14.9109615,3.22111501 14.7716667,3.1068694 14.6008013,3.08269786 L13.5059615,2.92787524 L13.0163462,1.96247953 C12.9399038,1.81180507 12.7851923,1.71820663 12.6125,1.71820663 C12.4398077,1.71820663 12.2850962,1.81180507 12.2086538,1.96247953 L11.7190385,2.92787524 L10.6242308,3.08269786 C10.4533333,3.10683821 10.3140385,3.22108382 10.260641,3.38089669 C10.2072756,3.54070955 10.2508974,3.71287329 10.3746154,3.83020663 L11.166859,4.5817076 L10.9798397,5.64272904 C10.950641,5.80837427 11.0192949,5.9725848 11.1589423,6.07139181 C11.2986538,6.17016764 11.4802885,6.18295517 11.6332372,6.10476413 L12.6124679,5.60380507 L13.5916987,6.10476413 C13.6581731,6.13879142 13.7300962,6.15557115 13.8016987,6.15557115 C13.8947115,6.15557115 13.9870513,6.12718908 14.0660256,6.071423 C14.2057051,5.97264717 14.274359,5.80840546 14.2451282,5.64279142 L14.058109,4.58173879 L14.8504167,3.83023782 C14.9741026,3.71284211 15.0177564,3.54067836 14.964359,3.38089669 L14.964359,3.38089669 Z" id="Shape" fill="#F7CB4F"></path>
                <path d="M14.964359,3.38089669 C14.9109615,3.22111501 14.7716667,3.1068694 14.6008013,3.08269786 L14.5813782,3.07995322 L13.3385256,4.2682885 C13.2749679,4.32860819 13.2459295,4.41550097 13.2609295,4.50064717 L13.5240385,6.07008187 L13.5916987,6.10470175 C13.6581731,6.13872904 13.7300962,6.15550877 13.8016987,6.15550877 C13.8947115,6.15550877 13.9870513,6.12712671 14.0660256,6.07136062 C14.2057051,5.9725848 14.274359,5.80834308 14.2451282,5.64272904 L14.058109,4.58167641 L14.8504167,3.83017544 C14.9741026,3.71284211 15.0177564,3.54067836 14.964359,3.38089669 L14.964359,3.38089669 Z" id="Shape" fill="#FBAB00"></path>
                <path d="M4.30144231,9.40463158 L0.254038462,9.40463158 C0.121025641,9.40463158 0.0132692308,9.50952047 0.0132692308,9.63892398 L0.0132692308,15.6226745 C0.0132692308,15.7521092 0.121057692,15.8569669 0.254038462,15.8569669 L4.30144231,15.8569669 C4.43445513,15.8569669 4.54221154,15.752078 4.54221154,15.6226745 L4.54221154,9.63892398 C4.54224359,9.50948928 4.43445513,9.40463158 4.30144231,9.40463158 L4.30144231,9.40463158 Z" id="Shape" fill="#546F7A"></path>
                <path d="M0.0132692308,14.9583158 L0.0132692308,15.6226745 C0.0132692308,15.7521092 0.121057692,15.8569669 0.254038462,15.8569669 L4.30144231,15.8569669 C4.43445513,15.8569669 4.54221154,15.752078 4.54221154,15.6226745 L4.54221154,14.9583158 L0.0132692308,14.9583158 L0.0132692308,14.9583158 Z" id="Shape" fill="#465A65"></path>
                <ellipse id="Oval" fill="#353535" cx="3.02310897" cy="14.4183392" rx="0.383365385" ry="0.373052632"></ellipse>
                <path d="M13.4376603,10.5688889 L10.9294231,10.5688889 C10.4845833,10.5688889 10.1226923,10.9210448 10.1226923,11.3539181 L10.1226923,11.4852865 C10.1226923,11.918191 10.4845833,12.2703158 10.9294231,12.2703158 L13.4376603,12.2703158 C13.8825,12.2703158 14.244391,11.9181598 14.244391,11.4852865 L14.244391,11.3539181 C14.244391,10.9210136 13.8825321,10.5688889 13.4376603,10.5688889 L13.4376603,10.5688889 Z" id="Shape" fill="#FFC89F"></path>
                <path d="M13.4376603,11.5132632 L10.9294231,11.5132632 C10.5988141,11.5132632 10.3141987,11.3186745 10.1896795,11.0410604 C10.1466987,11.1369669 10.1226923,11.2427602 10.1226923,11.3538869 L10.1226923,11.4852554 C10.1226923,11.9181598 10.4845833,12.2702846 10.9294231,12.2702846 L13.4376603,12.2702846 C13.8825,12.2702846 14.244391,11.9181287 14.244391,11.4852554 L14.244391,11.3538869 C14.244391,11.242729 14.2203846,11.1369669 14.1774038,11.0410604 C14.0529487,11.3186433 13.7682692,11.5132632 13.4376603,11.5132632 L13.4376603,11.5132632 Z" id="Shape" fill="#F7B081"></path>
                <path d="M13.7304487,11.8016998 L10.9294231,11.8016998 C10.4845833,11.8016998 10.1226923,12.1538869 10.1226923,12.586729 L10.1226923,12.7180975 C10.1226923,13.1510019 10.4845833,13.5031267 10.9294231,13.5031267 L13.7304487,13.5031267 C14.1753205,13.5031267 14.5371795,13.1509708 14.5371795,12.7180975 L14.5371795,12.586729 C14.5371795,12.1538558 14.1753205,11.8016998 13.7304487,11.8016998 L13.7304487,11.8016998 Z" id="Shape" fill="#FFC89F"></path>
                <path d="M13.7304487,12.7532476 L10.9294231,12.7532476 C10.5973718,12.7532476 10.3116346,12.5570058 10.1880449,12.2774893 C10.1460577,12.37246 10.1226923,12.4769747 10.1226923,12.5867602 L10.1226923,12.7181287 C10.1226923,13.1510331 10.4845833,13.5031579 10.9294231,13.5031579 L13.7304487,13.5031579 C14.1753205,13.5031579 14.5371795,13.1510019 14.5371795,12.7181287 L14.5371795,12.586729 C14.5371795,12.4769435 14.5138141,12.3724288 14.4718269,12.2774581 C14.3482692,12.5570058 14.0625,12.7532476 13.7304487,12.7532476 L13.7304487,12.7532476 Z" id="Shape" fill="#F7B081"></path>
                <path d="M13.3701923,13.0345419 L10.9969551,13.0345419 C10.5148718,13.0345419 10.1227244,13.4161715 10.1227244,13.8852554 C10.1227244,14.3543704 10.5149038,14.7359688 10.9969551,14.7359688 L13.3701923,14.7359688 C13.8522756,14.7359688 14.2444231,14.3543392 14.2444231,13.8852554 C14.244391,13.4161715 13.8522115,13.0345419 13.3701923,13.0345419 L13.3701923,13.0345419 Z" id="Shape" fill="#FFC89F"></path>
                <path d="M13.3701923,13.9711813 L10.9969551,13.9711813 C10.6561859,13.9711813 10.3605449,13.7803665 10.2163782,13.502846 C10.1566026,13.6179025 10.1226923,13.7477739 10.1226923,13.8852554 C10.1226923,14.3543704 10.5148718,14.7359688 10.9969231,14.7359688 L13.3701603,14.7359688 C13.8522436,14.7359688 14.244391,14.3543392 14.244391,13.8852554 C14.244391,13.7477739 14.2104808,13.6179025 14.1507051,13.502846 C14.0065705,13.7803665 13.7109295,13.9711813 13.3701923,13.9711813 L13.3701923,13.9711813 Z" id="Shape" fill="#F7B081"></path>
                <path d="M12.716891,14.2673528 L10.9969231,14.2673528 C10.5148397,14.2673528 10.1226923,14.6489825 10.1226923,15.1180975 C10.1226923,15.5872125 10.5148718,15.9688109 10.9969231,15.9688109 L12.716891,15.9688109 C13.1989744,15.9688109 13.5911538,15.5871813 13.5911538,15.1180975 C13.5911538,14.6490136 13.1989744,14.2673528 12.716891,14.2673528 L12.716891,14.2673528 Z" id="Shape" fill="#FFC89F"></path>
                <path d="M12.716891,15.2045848 L10.9969231,15.2045848 C10.6560577,15.2045848 10.3602885,15.0136452 10.2162179,14.7359688 C10.1565385,14.850963 10.1226923,14.9807096 10.1226923,15.1180975 C10.1226923,15.5872125 10.5148718,15.9688109 10.9969231,15.9688109 L12.716891,15.9688109 C13.1989744,15.9688109 13.5911538,15.5871813 13.5911538,15.1180975 C13.5911538,14.9807096 13.5573077,14.850963 13.4976282,14.7359688 C13.3535256,15.0136452 13.0577885,15.2045848 12.716891,15.2045848 L12.716891,15.2045848 Z" id="Shape" fill="#F7B081"></path>
            </g>
        </g>
    </g>
</svg>